<svg xmlns="http://www.w3.org/2000/svg" viewBox="0 0 512 512" role="img" aria-labelledby="title desc">
  <title id="title">OGCoin logo</title>
  <desc id="desc">Green and blue circular OGC mark for OGCoin.</desc>
  <circle cx="256" cy="256" r="228" fill="#1b5fa3"/>
  <path fill="#1f9f6a" d="M75 256c0-100 81-181 181-181v362c-100 0-181-81-181-181z" opacity=".82"/>
  <circle cx="256" cy="256" r="188" fill="none" stroke="#f9943b" stroke-width="20"/>
  <path fill="#ffffff" d="M170 282c0-59 41-103 99-103 28 0 52 9 71 27l-27 30c-12-12-27-18-44-18-34 0-58 27-58 64 0 38 25 65 61 65 15 0 29-4 40-13v-31h-52v-38h92v89c-21 20-50 31-83 31-59 0-99-42-99-103z"/>
  <path fill="#ffffff" d="M111 331c-23-20-36-48-36-80 0-61 45-105 106-105 22 0 42 5 59 16l-22 35c-10-7-22-10-36-10-37 0-63 27-63 64 0 35 24 62 58 64l-21 38c-17-3-32-10-45-22z" opacity=".92"/>
  <path fill="#ffffff" d="M338 177c14-20 39-33 72-35-1 37-13 65-35 82-16 12-35 18-57 18 2-25 9-47 20-65z" opacity=".9"/>
</svg>
